<?xml version="1.0" encoding="UTF-8"?> <svg xmlns="http://www.w3.org/2000/svg" xmlns:bx="https://boxy-svg.com" viewBox="0 0 906 410" width="906" height="410" style="font-family:&quot;Lucida Grande&quot;, &quot;Lucida Sans Unicode&quot;, Arial, Helvetica, sans-serif;font-size:12px;"><defs><linearGradient id="gradient-0" gradientUnits="userSpaceOnUse" x1="483.024" y1="278.319" x2="483.024" y2="323.729"><stop offset="0" style="stop-color: rgba(216, 216, 216, 0);"></stop><stop offset="1" style="stop-color: rgba(165, 165, 165, 1)"></stop></linearGradient><clipPath id="highcharts-lv3d299-466"><rect x="0" y="0" width="826" height="313" fill="none"></rect></clipPath></defs><rect fill="#ffffff" class="highcharts-background" x="0" y="0" width="906" height="410" rx="0" ry="0"></rect><rect fill="none" class="highcharts-plot-background" x="70" y="10" width="826" height="313"></rect><g class="highcharts-pane-group" data-z-index="0"></g><g class="highcharts-grid highcharts-xaxis-grid " data-z-index="1"><path fill="none" data-z-index="1" class="highcharts-grid-line" d="M 152.5 10 L 152.5 323" opacity="1"></path><path fill="none" data-z-index="1" class="highcharts-grid-line" d="M 234.5 10 L 234.5 323" opacity="1"></path><path fill="none" data-z-index="1" class="highcharts-grid-line" d="M 317.5 10 L 317.5 323" opacity="1"></path><path fill="none" data-z-index="1" class="highcharts-grid-line" d="M 399.5 10 L 399.5 323" opacity="1"></path><path fill="none" data-z-index="1" class="highcharts-grid-line" d="M 482.5 10 L 482.5 323" opacity="1"></path><path fill="none" data-z-index="1" class="highcharts-grid-line" d="M 565.5 10 L 565.5 323" opacity="1"></path><path fill="none" data-z-index="1" class="highcharts-grid-line" d="M 647.5 10 L 647.5 323" opacity="1"></path><path fill="none" data-z-index="1" class="highcharts-grid-line" d="M 730.5 10 L 730.5 323" opacity="1"></path><path fill="none" data-z-index="1" class="highcharts-grid-line" d="M 812.5 10 L 812.5 323" opacity="1"></path><path fill="none" data-z-index="1" class="highcharts-grid-line" d="M 895.5 10 L 895.5 323" opacity="1"></path><path fill="none" data-z-index="1" class="highcharts-grid-line" d="M 69.5 10 L 69.5 323" opacity="1"></path></g><rect x="69.046" y="278.319" width="827.957" height="45.41" style="fill: url(#gradient-0);"></rect><g class="highcharts-grid highcharts-yaxis-grid " data-z-index="1"><path fill="none" stroke="#e6e6e6" stroke-width="1" data-z-index="1" class="highcharts-grid-line" d="M 70 323.5 L 896 323.5" opacity="1"></path><path fill="none" stroke="#e6e6e6" stroke-width="1" data-z-index="1" class="highcharts-grid-line" d="M 70 278.5 L 896 278.5" opacity="1"></path><path fill="none" stroke="#e6e6e6" stroke-width="1" data-z-index="1" class="highcharts-grid-line" d="M 70 234.5 L 896 234.5" opacity="1"></path><path fill="none" stroke="#e6e6e6" stroke-width="1" data-z-index="1" class="highcharts-grid-line" d="M 70 189.5 L 896 189.5" opacity="1"></path><path fill="none" stroke="#e6e6e6" stroke-width="1" data-z-index="1" class="highcharts-grid-line" d="M 70 144.5 L 896 144.5" opacity="1"></path><path fill="none" stroke="#e6e6e6" stroke-width="1" data-z-index="1" class="highcharts-grid-line" d="M 70 99.5 L 896 99.5" opacity="1"></path><path fill="none" stroke="#e6e6e6" stroke-width="1" data-z-index="1" class="highcharts-grid-line" d="M 70 55.5 L 896 55.5" opacity="1"></path><path fill="none" stroke="#e6e6e6" stroke-width="1" data-z-index="1" class="highcharts-grid-line" d="M 70 9.5 L 896 9.5" opacity="1"></path></g><rect fill="none" class="highcharts-plot-border" data-z-index="1" x="70" y="10" width="826" height="313"></rect><g class="highcharts-axis highcharts-xaxis " data-z-index="2"><path fill="none" class="highcharts-tick" stroke="#ccd6eb" stroke-width="1" d="M 152.5 323 L 152.5 333" opacity="1"></path><path fill="none" class="highcharts-tick" stroke="#ccd6eb" stroke-width="1" d="M 234.5 323 L 234.5 333" opacity="1"></path><path fill="none" class="highcharts-tick" stroke="#ccd6eb" stroke-width="1" d="M 317.5 323 L 317.5 333" opacity="1"></path><path fill="none" class="highcharts-tick" stroke="#ccd6eb" stroke-width="1" d="M 399.5 323 L 399.5 333" opacity="1"></path><path fill="none" class="highcharts-tick" stroke="#ccd6eb" stroke-width="1" d="M 482.5 323 L 482.5 333" opacity="1"></path><path fill="none" class="highcharts-tick" stroke="#ccd6eb" stroke-width="1" d="M 565.5 323 L 565.5 333" opacity="1"></path><path fill="none" class="highcharts-tick" stroke="#ccd6eb" stroke-width="1" d="M 647.5 323 L 647.5 333" opacity="1"></path><path fill="none" class="highcharts-tick" stroke="#ccd6eb" stroke-width="1" d="M 730.5 323 L 730.5 333" opacity="1"></path><path fill="none" class="highcharts-tick" stroke="#ccd6eb" stroke-width="1" d="M 812.5 323 L 812.5 333" opacity="1"></path><path fill="none" class="highcharts-tick" stroke="#ccd6eb" stroke-width="1" d="M 896.5 323 L 896.5 333" opacity="1"></path><path fill="none" class="highcharts-tick" stroke="#ccd6eb" stroke-width="1" d="M 69.5 323 L 69.5 333" opacity="1"></path><path fill="none" class="highcharts-axis-line" stroke="#ccd6eb" stroke-width="1" data-z-index="7" d="M 70 323.5 L 896 323.5"></path></g><g class="highcharts-axis highcharts-yaxis " data-z-index="2"><text x="24.140625" data-z-index="7" text-anchor="middle" transform="translate(0,0) rotate(270 24.140625 166.5)" class="highcharts-axis-title" style="color: rgb(102, 102, 102); fill: rgb(102, 102, 102); white-space: pre;" y="166.5"><tspan>Frames per Second</tspan></text><path fill="none" class="highcharts-axis-line" data-z-index="7" d="M 70 10 L 70 323"></path></g><g class="highcharts-series-group" data-z-index="3"><g data-z-index="0.1" class="highcharts-series highcharts-series-0 highcharts-line-series highcharts-color-0 " transform="translate(70,10) scale(1 1)" clip-path="url(#highcharts-lv3d299-466)"><path fill="none" d="M 41.3 313 L 123.9 273.29371428571426 L 206.5 249.5057142857143 L 289.1 260.52331428571426 L 371.7 281.87885714285716 L 454.3 255.22914285714288 L 536.9 205.6857142857143 L 619.5 300.12228571428574 L 702.1 286.708 L 784.7 211.588" class="highcharts-graph highcharts-shadow" data-z-index="1" stroke="#000000" stroke-width="5" stroke-linejoin="round" stroke-linecap="round" stroke-opacity="0.049999999999999996" transform="translate(1, 1)"></path><path fill="none" d="M 41.3 313 L 123.9 273.29371428571426 L 206.5 249.5057142857143 L 289.1 260.52331428571426 L 371.7 281.87885714285716 L 454.3 255.22914285714288 L 536.9 205.6857142857143 L 619.5 300.12228571428574 L 702.1 286.708 L 784.7 211.588" class="highcharts-graph highcharts-shadow" data-z-index="1" stroke="#000000" stroke-width="3" stroke-linejoin="round" stroke-linecap="round" stroke-opacity="0.09999999999999999" transform="translate(1, 1)"></path><path fill="none" d="M 41.3 313 L 123.9 273.29371428571426 L 206.5 249.5057142857143 L 289.1 260.52331428571426 L 371.7 281.87885714285716 L 454.3 255.22914285714288 L 536.9 205.6857142857143 L 619.5 300.12228571428574 L 702.1 286.708 L 784.7 211.588" class="highcharts-graph highcharts-shadow" data-z-index="1" stroke="#000000" stroke-width="1" stroke-linejoin="round" stroke-linecap="round" stroke-opacity="0.15" transform="translate(1, 1)"></path><path fill="none" d="M 41.3 313 L 123.9 273.29371428571426 L 206.5 249.5057142857143 L 289.1 260.52331428571426 L 371.7 281.87885714285716 L 454.3 255.22914285714288 L 536.9 205.6857142857143 L 619.5 300.12228571428574 L 702.1 286.708 L 784.7 211.588" class="highcharts-graph" data-z-index="1" stroke="#D14648" stroke-width="2" stroke-linejoin="round" stroke-linecap="round"></path></g><g data-z-index="0.1" class="highcharts-markers highcharts-series-0 highcharts-line-series highcharts-color-0 " transform="translate(70,10) scale(1 1)" clip-path="none"><path fill="#D14648" d="M 45 313 A 4 4 0 1 1 44.99999800000017 312.99600000066664 Z" class="highcharts-point highcharts-color-0"></path><path fill="#D14648" d="M 127 273 A 4 4 0 1 1 126.99999800000016 272.99600000066664 Z" class="highcharts-point highcharts-color-0"></path><path fill="#D14648" d="M 210 250 A 4 4 0 1 1 209.99999800000018 249.99600000066667 Z" class="highcharts-point highcharts-color-0"></path><path fill="#D14648" d="M 293 261 A 4 4 0 1 1 292.9999980000002 260.99600000066664 Z" class="highcharts-point highcharts-color-0"></path><path fill="#D14648" d="M 375 282 A 4 4 0 1 1 374.9999980000002 281.99600000066664 Z" class="highcharts-point highcharts-color-0"></path><path fill="#D14648" d="M 458 255 A 4 4 0 1 1 457.9999980000002 254.99600000066667 Z" class="highcharts-point highcharts-color-0"></path><path fill="#D14648" d="M 540 206 A 4 4 0 1 1 539.9999980000001 205.99600000066667 Z" class="highcharts-point highcharts-color-0"></path><path fill="#D14648" d="M 623 300 A 4 4 0 1 1 622.9999980000001 299.99600000066664 Z" class="highcharts-point highcharts-color-0"></path><path fill="#D14648" d="M 706 287 A 4 4 0 1 1 705.9999980000001 286.99600000066664 Z" class="highcharts-point highcharts-color-0"></path><path fill="#D14648" d="M 788 212 A 4 4 0 1 1 787.9999980000001 211.99600000066667 Z" class="highcharts-point highcharts-color-0"></path></g><g data-z-index="0.1" class="highcharts-series highcharts-series-1 highcharts-line-series highcharts-color-1 " transform="translate(70,10) scale(1 1)" clip-path="url(#highcharts-lv3d299-466)"><path fill="none" d="M 41.3 283.5601142857143 L 123.9 247.53828571428573 L 206.5 172.776 L 289.1 216.52445714285716 L 371.7 270.6108571428571 L 454.3 206.40114285714287 L 536.9 205.6857142857143 L 619.5 290.64285714285717 L 702.1 263.0988571428571 L 784.7 205.6857142857143" class="highcharts-graph highcharts-shadow" data-z-index="1" stroke="#000000" stroke-width="5" stroke-linejoin="round" stroke-linecap="round" stroke-opacity="0.049999999999999996" transform="translate(1, 1)"></path><path fill="none" d="M 41.3 283.5601142857143 L 123.9 247.53828571428573 L 206.5 172.776 L 289.1 216.52445714285716 L 371.7 270.6108571428571 L 454.3 206.40114285714287 L 536.9 205.6857142857143 L 619.5 290.64285714285717 L 702.1 263.0988571428571 L 784.7 205.6857142857143" class="highcharts-graph highcharts-shadow" data-z-index="1" stroke="#000000" stroke-width="3" stroke-linejoin="round" stroke-linecap="round" stroke-opacity="0.09999999999999999" transform="translate(1, 1)"></path><path fill="none" d="M 41.3 283.5601142857143 L 123.9 247.53828571428573 L 206.5 172.776 L 289.1 216.52445714285716 L 371.7 270.6108571428571 L 454.3 206.40114285714287 L 536.9 205.6857142857143 L 619.5 290.64285714285717 L 702.1 263.0988571428571 L 784.7 205.6857142857143" class="highcharts-graph highcharts-shadow" data-z-index="1" stroke="#000000" stroke-width="1" stroke-linejoin="round" stroke-linecap="round" stroke-opacity="0.15" transform="translate(1, 1)"></path><path fill="none" d="M 41.3 283.5601142857143 L 123.9 247.53828571428573 L 206.5 172.776 L 289.1 216.52445714285716 L 371.7 270.6108571428571 L 454.3 206.40114285714287 L 536.9 205.6857142857143 L 619.5 290.64285714285717 L 702.1 263.0988571428571 L 784.7 205.6857142857143" class="highcharts-graph" data-z-index="1" stroke="#323232" stroke-width="2" stroke-linejoin="round" stroke-linecap="round"></path></g><g data-z-index="0.1" class="highcharts-markers highcharts-series-1 highcharts-line-series highcharts-color-1 " transform="translate(70,10) scale(1 1)" clip-path="none"><path fill="#323232" d="M 41 280 L 45 284 41 288 37 284 Z" class="highcharts-point highcharts-color-1"></path><path fill="#323232" d="M 123 244 L 127 248 123 252 119 248 Z" class="highcharts-point highcharts-color-1"></path><path fill="#323232" d="M 206 169 L 210 173 206 177 202 173 Z" class="highcharts-point highcharts-color-1"></path><path fill="#323232" d="M 289 213 L 293 217 289 221 285 217 Z" class="highcharts-point highcharts-color-1"></path><path fill="#323232" d="M 371 267 L 375 271 371 275 367 271 Z" class="highcharts-point highcharts-color-1"></path><path fill="#323232" d="M 454 202 L 458 206 454 210 450 206 Z" class="highcharts-point highcharts-color-1"></path><path fill="#323232" d="M 536 202 L 540 206 536 210 532 206 Z" class="highcharts-point highcharts-color-1"></path><path fill="#323232" d="M 619 287 L 623 291 619 295 615 291 Z" class="highcharts-point highcharts-color-1"></path><path fill="#323232" d="M 702 259 L 706 263 702 267 698 263 Z" class="highcharts-point highcharts-color-1"></path><path fill="#323232" d="M 784 202 L 788 206 784 210 780 206 Z" class="highcharts-point highcharts-color-1"></path></g><g data-z-index="0.1" class="highcharts-series highcharts-series-2 highcharts-line-series highcharts-color-2 " transform="translate(70,10) scale(1 1)" clip-path="url(#highcharts-lv3d299-466)"><path fill="none" d="M 41.3 220.9422285714286 L 123.9 205.6857142857143 L 206.5 32.37314285714285 L 289.1 106.59885714285716 L 371.7 160.9714285714286 L 454.3 130.74457142857142 L 536.9 205.6857142857143 L 619.5 230.18914285714288 L 702.1 184.4017142857143 L 784.7 205.6857142857143" class="highcharts-graph" data-z-index="1" stroke="#9e9e9e" stroke-width="2" stroke-linejoin="round" stroke-linecap="round"></path></g><g data-z-index="0.1" class="highcharts-markers highcharts-series-2 highcharts-line-series highcharts-color-2 " transform="translate(70,10) scale(1 1)" clip-path="none"><path fill="#9e9e9e" d="M 37 217 L 45 217 45 225 37 225 Z" class="highcharts-point highcharts-color-2"></path><path fill="#9e9e9e" d="M 119 202 L 127 202 127 210 119 210 Z" class="highcharts-point highcharts-color-2"></path><path fill="#9e9e9e" d="M 202 28 L 210 28 210 36 202 36 Z" class="highcharts-point highcharts-color-2"></path><path fill="#9e9e9e" d="M 285 103 L 293 103 293 111 285 111 Z" class="highcharts-point highcharts-color-2"></path><path fill="#9e9e9e" d="M 367 157 L 375 157 375 165 367 165 Z" class="highcharts-point highcharts-color-2"></path><path fill="#9e9e9e" d="M 450 127 L 458 127 458 135 450 135 Z" class="highcharts-point highcharts-color-2"></path><path fill="#9e9e9e" d="M 532 202 L 540 202 540 210 532 210 Z" class="highcharts-point highcharts-color-2"></path><path fill="#9e9e9e" d="M 615 226 L 623 226 623 234 615 234 Z" class="highcharts-point highcharts-color-2"></path><path fill="#9e9e9e" d="M 698 180 L 706 180 706 188 698 188 Z" class="highcharts-point highcharts-color-2"></path><path fill="#9e9e9e" d="M 780 202 L 788 202 788 210 780 210 Z" class="highcharts-point highcharts-color-2"></path></g></g><g class="highcharts-legend" data-z-index="7" transform="matrix(1, 0, 0, 1, 220, 370)"><rect fill="none" class="highcharts-legend-box" rx="0" ry="0" x="0" y="0" width="466" height="25" visibility="visible"></rect><g data-z-index="1"><g><g class="highcharts-legend-item highcharts-line-series highcharts-color-0 highcharts-series-0" data-z-index="1" transform="translate(8,3)"><path fill="none" d="M 0 11 L 16 11" class="highcharts-graph" stroke="#D14648" stroke-width="2"></path><path fill="#D14648" d="M 12 11 A 4 4 0 1 1 11.999998000000167 10.996000000666664 Z" class="highcharts-point"></path><text x="21" style="color: rgb(51, 51, 51); font-size: 12px; font-weight: bold; cursor: pointer; fill: rgb(51, 51, 51); white-space: pre;" text-anchor="start" data-z-index="2" y="15"><tspan>2013 13-inch MBP</tspan></text></g><g class="highcharts-legend-item highcharts-line-series highcharts-color-1 highcharts-series-1" data-z-index="1" transform="translate(163.921875,3)"><path fill="none" d="M 0 11 L 16 11" class="highcharts-graph" stroke="#323232" stroke-width="2"></path><path fill="#323232" d="M 8 7 L 12 11 8 15 4 11 Z" class="highcharts-point"></path><text x="21" y="15" style="color: rgb(51, 51, 51); font-size: 12px; font-weight: bold; cursor: pointer; fill: rgb(51, 51, 51); white-space: pre;" text-anchor="start" data-z-index="2"><tspan>2016 13-inch MBP</tspan></text></g><g class="highcharts-legend-item highcharts-line-series highcharts-color-2 highcharts-series-2" data-z-index="1" transform="translate(319.84375,3)"><path fill="none" d="M 0 11 L 16 11" class="highcharts-graph" stroke="#9e9e9e" stroke-width="2"></path><path fill="#9e9e9e" d="M 4 7 L 12 7 12 15 4 15 Z" class="highcharts-point"></path><text x="21" y="15" style="color: rgb(51, 51, 51); font-size: 12px; font-weight: bold; cursor: pointer; fill: rgb(51, 51, 51); white-space: pre;" text-anchor="start" data-z-index="2"><tspan>2014 27-inch iMac</tspan></text></g></g></g></g><g class="highcharts-axis-labels highcharts-xaxis-labels " data-z-index="7"><text x="111.3" style="color: rgb(102, 102, 102); cursor: default; font-size: 11px; fill: rgb(102, 102, 102); white-space: pre;" text-anchor="middle" transform="translate(0,0)" y="342" opacity="1"><tspan>Rise of the</tspan><tspan dy="14" x="111.3">Tomb Raider</tspan></text><text x="193.89999999999998" style="color: rgb(102, 102, 102); cursor: default; font-size: 11px; fill: rgb(102, 102, 102); white-space: pre;" text-anchor="middle" transform="translate(0,0)" y="342" opacity="1">SOMA</text><text x="276.5" style="color: rgb(102, 102, 102); cursor: default; font-size: 11px; fill: rgb(102, 102, 102); white-space: pre;" text-anchor="middle" transform="translate(0,0)" y="342" opacity="1"><tspan>World of</tspan><tspan dy="14" x="276.5">Warcraft</tspan></text><text x="359.09999999999997" style="color: rgb(102, 102, 102); cursor: default; font-size: 11px; fill: rgb(102, 102, 102); white-space: pre;" text-anchor="middle" transform="translate(0,0)" y="342" opacity="1"><tspan>DiRT Rally</tspan></text><text x="441.7" style="color: rgb(102, 102, 102); cursor: default; font-size: 11px; fill: rgb(102, 102, 102); white-space: pre;" text-anchor="middle" transform="translate(0,0)" y="342" opacity="1"><tspan>Pillars of</tspan><tspan dy="14" x="441.7">Eternity 2</tspan></text><text x="524.3000000000001" style="color: rgb(102, 102, 102); cursor: default; font-size: 11px; fill: rgb(102, 102, 102); white-space: pre;" text-anchor="middle" transform="translate(0,0)" y="342" opacity="1"><tspan>Borderlands 2</tspan></text><text x="606.9000000000001" style="color: rgb(102, 102, 102); cursor: default; font-size: 11px; fill: rgb(102, 102, 102); white-space: pre;" text-anchor="middle" transform="translate(0,0)" y="342" opacity="1"><tspan>Stardew Valley</tspan></text><text x="689.5" style="color: rgb(102, 102, 102); cursor: default; font-size: 11px; fill: rgb(102, 102, 102); white-space: pre;" text-anchor="middle" transform="translate(0,0)" y="342" opacity="1"><tspan>Civilization 6</tspan></text><text x="772.1" style="color: rgb(102, 102, 102); cursor: default; font-size: 11px; fill: rgb(102, 102, 102); white-space: pre;" text-anchor="middle" transform="translate(0,0)" y="342" opacity="1">Fortnite</text><text x="854.7" style="color: rgb(102, 102, 102); cursor: default; font-size: 11px; fill: rgb(102, 102, 102); white-space: pre;" text-anchor="middle" transform="translate(0,0)" y="342" opacity="1">Cuphead</text></g><g class="highcharts-axis-labels highcharts-yaxis-labels " data-z-index="7"><text x="55" style="color: rgb(102, 102, 102); cursor: default; font-size: 11px; fill: rgb(102, 102, 102); white-space: pre;" text-anchor="end" transform="translate(0,0)" y="328" opacity="1">0</text><text x="55" style="color: rgb(102, 102, 102); cursor: default; font-size: 11px; fill: rgb(102, 102, 102); white-space: pre;" text-anchor="end" transform="translate(0,0)" y="283" opacity="1">25</text><text x="55" style="color: rgb(102, 102, 102); cursor: default; font-size: 11px; fill: rgb(102, 102, 102); white-space: pre;" text-anchor="end" transform="translate(0,0)" y="238" opacity="1">50</text><text x="55" style="color: rgb(102, 102, 102); cursor: default; font-size: 11px; fill: rgb(102, 102, 102); white-space: pre;" text-anchor="end" transform="translate(0,0)" y="193" opacity="1">75</text><text x="55" style="color: rgb(102, 102, 102); cursor: default; font-size: 11px; fill: rgb(102, 102, 102); white-space: pre;" text-anchor="end" transform="translate(0,0)" y="149" opacity="1">100</text><text x="55" style="color: rgb(102, 102, 102); cursor: default; font-size: 11px; fill: rgb(102, 102, 102); white-space: pre;" text-anchor="end" transform="translate(0,0)" y="104" opacity="1">125</text><text x="55" style="color: rgb(102, 102, 102); cursor: default; font-size: 11px; fill: rgb(102, 102, 102); white-space: pre;" text-anchor="end" transform="translate(0,0)" y="59" opacity="1">150</text><text x="55" style="color: rgb(102, 102, 102); cursor: default; font-size: 11px; fill: rgb(102, 102, 102); white-space: pre;" text-anchor="end" transform="translate(0,0)" y="15" opacity="1">175</text></g><path d="M 716.145 210.124 H 736.246 L 736.246 206.624 L 748.473 212.624 L 736.246 218.624 L 736.246 215.124 H 716.145 V 210.124 Z" transform="matrix(-0.000079, 1, -1, -0.000079, 1099.226807, -425.107574)" style="fill: rgb(91, 91, 91);" bx:shape="arrow 716.145 206.624 32.328 12 5 12.227 0 1@b94f77bf"></path><path d="M 716.145 210.124 H 736.246 L 736.246 206.624 L 748.473 212.624 L 736.246 218.624 L 736.246 215.124 H 716.145 V 210.124 Z" transform="matrix(0.000079, -1, 1, 0.000079, 673.8927, 1026.875366)" style="fill: rgb(91, 91, 91);" bx:shape="arrow 716.145 206.624 32.328 12 5 12.227 0 1@b94f77bf"></path><path d="M 798.052 304.64 C 798.579 304.64 799.019 304.533 799.372 304.32 C 799.732 304.107 800.022 303.83 800.242 303.49 C 800.462 303.143 800.615 302.75 800.702 302.31 C 800.795 301.87 800.842 301.413 800.842 300.94 L 800.842 295.15 L 803.032 295.15 L 803.032 300.94 C 803.032 301.72 802.939 302.45 802.752 303.13 C 802.565 303.817 802.272 304.417 801.872 304.93 C 801.472 305.437 800.959 305.84 800.332 306.14 C 799.699 306.44 798.945 306.59 798.072 306.59 C 797.165 306.59 796.395 306.433 795.762 306.12 C 795.129 305.807 794.612 305.39 794.212 304.87 C 793.819 304.35 793.535 303.75 793.362 303.07 C 793.182 302.39 793.092 301.68 793.092 300.94 L 793.092 295.15 L 795.302 295.15 L 795.302 300.94 C 795.302 301.42 795.349 301.883 795.442 302.33 C 795.529 302.77 795.682 303.16 795.902 303.5 C 796.122 303.84 796.409 304.117 796.762 304.33 C 797.115 304.537 797.545 304.64 798.052 304.64 ZM 812.842 301.28 L 812.842 306.51 L 810.692 306.51 L 810.692 301.81 C 810.692 301.137 810.575 300.643 810.342 300.33 C 810.109 300.023 809.785 299.87 809.372 299.87 C 809.159 299.87 808.939 299.913 808.712 300 C 808.485 300.087 808.275 300.207 808.082 300.36 C 807.882 300.513 807.702 300.697 807.542 300.91 C 807.382 301.123 807.265 301.357 807.192 301.61 L 807.192 306.51 L 805.052 306.51 L 805.052 298.13 L 806.982 298.13 L 806.982 299.68 C 807.295 299.147 807.745 298.73 808.332 298.43 C 808.919 298.13 809.579 297.98 810.312 297.98 C 810.832 297.98 811.259 298.077 811.592 298.27 C 811.925 298.463 812.182 298.713 812.362 299.02 C 812.542 299.333 812.665 299.687 812.732 300.08 C 812.805 300.473 812.842 300.873 812.842 301.28 ZM 819.736 306.67 C 819.076 306.67 818.499 306.523 818.006 306.23 C 817.519 305.937 817.136 305.54 816.856 305.04 L 816.856 309.92 L 814.716 309.92 L 814.716 298.13 L 816.586 298.13 L 816.586 299.57 C 816.893 299.077 817.293 298.69 817.786 298.41 C 818.273 298.123 818.836 297.98 819.476 297.98 C 820.043 297.98 820.566 298.097 821.046 298.33 C 821.526 298.557 821.939 298.863 822.286 299.25 C 822.633 299.643 822.906 300.103 823.106 300.63 C 823.299 301.157 823.396 301.713 823.396 302.3 C 823.396 302.907 823.306 303.477 823.126 304.01 C 822.946 304.543 822.693 305.01 822.366 305.41 C 822.039 305.803 821.653 306.11 821.206 306.33 C 820.759 306.557 820.269 306.67 819.736 306.67 Z M 819.016 304.85 C 819.336 304.85 819.633 304.78 819.906 304.64 C 820.179 304.5 820.409 304.313 820.596 304.08 C 820.789 303.847 820.939 303.573 821.046 303.26 C 821.153 302.953 821.206 302.633 821.206 302.3 C 821.206 301.947 821.149 301.62 821.036 301.32 C 820.916 301.013 820.753 300.75 820.546 300.53 C 820.339 300.303 820.093 300.127 819.806 300 C 819.526 299.873 819.219 299.81 818.886 299.81 C 818.686 299.81 818.479 299.843 818.266 299.91 C 818.053 299.977 817.856 300.077 817.676 300.21 C 817.489 300.337 817.326 300.483 817.186 300.65 C 817.039 300.823 816.929 301.01 816.856 301.21 L 816.856 303.18 C 817.049 303.66 817.343 304.057 817.736 304.37 C 818.129 304.69 818.556 304.85 819.016 304.85 ZM 824.84 304.57 L 824.84 294.83 L 826.98 294.83 L 826.98 303.82 C 826.98 304.133 827.057 304.373 827.21 304.54 C 827.357 304.713 827.57 304.8 827.85 304.8 C 827.977 304.8 828.117 304.777 828.27 304.73 C 828.423 304.69 828.57 304.637 828.71 304.57 L 829 306.21 C 828.713 306.343 828.377 306.45 827.99 306.53 C 827.61 306.603 827.263 306.64 826.95 306.64 C 826.277 306.64 825.757 306.46 825.39 306.1 C 825.023 305.747 824.84 305.237 824.84 304.57 ZM 832.212 306.67 C 831.812 306.67 831.435 306.603 831.082 306.47 C 830.729 306.337 830.425 306.15 830.172 305.91 C 829.912 305.67 829.712 305.39 829.572 305.07 C 829.425 304.75 829.352 304.397 829.352 304.01 C 829.352 303.617 829.439 303.253 829.612 302.92 C 829.792 302.58 830.039 302.293 830.352 302.06 C 830.665 301.827 831.042 301.643 831.482 301.51 C 831.915 301.377 832.395 301.31 832.922 301.31 C 833.295 301.31 833.659 301.343 834.012 301.41 C 834.372 301.47 834.692 301.56 834.972 301.68 L 834.972 301.2 C 834.972 300.647 834.812 300.22 834.492 299.92 C 834.179 299.62 833.712 299.47 833.092 299.47 C 832.645 299.47 832.209 299.55 831.782 299.71 C 831.355 299.87 830.919 300.103 830.472 300.41 L 829.812 299.05 C 830.892 298.337 832.055 297.98 833.302 297.98 C 834.509 297.98 835.445 298.277 836.112 298.87 C 836.779 299.463 837.112 300.32 837.112 301.44 L 837.112 304.05 C 837.112 304.27 837.152 304.43 837.232 304.53 C 837.312 304.623 837.442 304.677 837.622 304.69 L 837.622 306.51 C 837.262 306.583 836.949 306.62 836.682 306.62 C 836.275 306.62 835.962 306.53 835.742 306.35 C 835.522 306.17 835.385 305.93 835.332 305.63 L 835.292 305.17 C 834.919 305.657 834.465 306.03 833.932 306.29 C 833.399 306.543 832.825 306.67 832.212 306.67 Z M 832.822 305.1 C 833.189 305.1 833.532 305.037 833.852 304.91 C 834.179 304.783 834.432 304.613 834.612 304.4 C 834.852 304.22 834.972 304.017 834.972 303.79 L 834.972 302.83 C 834.712 302.737 834.432 302.66 834.132 302.6 C 833.839 302.54 833.552 302.51 833.272 302.51 C 832.719 302.51 832.265 302.637 831.912 302.89 C 831.559 303.137 831.382 303.453 831.382 303.84 C 831.382 304.2 831.522 304.5 831.802 304.74 C 832.075 304.98 832.415 305.1 832.822 305.1 ZM 839.078 310 L 839.078 308.14 C 839.258 308.193 839.435 308.233 839.608 308.26 C 839.781 308.287 839.925 308.3 840.038 308.3 C 840.178 308.3 840.308 308.273 840.428 308.22 C 840.541 308.167 840.648 308.073 840.748 307.94 C 840.841 307.807 840.935 307.623 841.028 307.39 C 841.128 307.157 841.231 306.863 841.338 306.51 L 838.028 298.13 L 840.228 298.13 L 842.508 304.65 L 844.518 298.13 L 846.538 298.13 L 843.018 308.17 C 842.811 308.757 842.465 309.237 841.978 309.61 C 841.485 309.983 840.875 310.17 840.148 310.17 C 839.981 310.17 839.808 310.157 839.628 310.13 C 839.455 310.103 839.271 310.06 839.078 310 ZM 849.78 306.67 C 849.38 306.67 849.003 306.603 848.65 306.47 C 848.297 306.337 847.993 306.15 847.74 305.91 C 847.48 305.67 847.28 305.39 847.14 305.07 C 846.993 304.75 846.92 304.397 846.92 304.01 C 846.92 303.617 847.007 303.253 847.18 302.92 C 847.36 302.58 847.607 302.293 847.92 302.06 C 848.233 301.827 848.61 301.643 849.05 301.51 C 849.483 301.377 849.963 301.31 850.49 301.31 C 850.863 301.31 851.227 301.343 851.58 301.41 C 851.94 301.47 852.26 301.56 852.54 301.68 L 852.54 301.2 C 852.54 300.647 852.38 300.22 852.06 299.92 C 851.747 299.62 851.28 299.47 850.66 299.47 C 850.213 299.47 849.777 299.55 849.35 299.71 C 848.923 299.87 848.487 300.103 848.04 300.41 L 847.38 299.05 C 848.46 298.337 849.623 297.98 850.87 297.98 C 852.077 297.98 853.013 298.277 853.68 298.87 C 854.347 299.463 854.68 300.32 854.68 301.44 L 854.68 304.05 C 854.68 304.27 854.72 304.43 854.8 304.53 C 854.88 304.623 855.01 304.677 855.19 304.69 L 855.19 306.51 C 854.83 306.583 854.517 306.62 854.25 306.62 C 853.843 306.62 853.53 306.53 853.31 306.35 C 853.09 306.17 852.953 305.93 852.9 305.63 L 852.86 305.17 C 852.487 305.657 852.033 306.03 851.5 306.29 C 850.967 306.543 850.393 306.67 849.78 306.67 Z M 850.39 305.1 C 850.757 305.1 851.1 305.037 851.42 304.91 C 851.747 304.783 852 304.613 852.18 304.4 C 852.42 304.22 852.54 304.017 852.54 303.79 L 852.54 302.83 C 852.28 302.737 852 302.66 851.7 302.6 C 851.407 302.54 851.12 302.51 850.84 302.51 C 850.287 302.51 849.833 302.637 849.48 302.89 C 849.127 303.137 848.95 303.453 848.95 303.84 C 848.95 304.2 849.09 304.5 849.37 304.74 C 849.643 304.98 849.983 305.1 850.39 305.1 ZM 861.444 306.67 C 860.804 306.67 860.234 306.527 859.734 306.24 C 859.234 305.953 858.841 305.557 858.554 305.05 L 858.554 306.51 L 856.684 306.51 L 856.684 294.83 L 858.824 294.83 L 858.824 299.6 C 859.124 299.087 859.517 298.69 860.004 298.41 C 860.484 298.123 861.051 297.98 861.704 297.98 C 862.251 297.98 862.747 298.097 863.194 298.33 C 863.641 298.57 864.027 298.887 864.354 299.28 C 864.681 299.673 864.931 300.137 865.104 300.67 C 865.277 301.203 865.364 301.763 865.364 302.35 C 865.364 302.957 865.267 303.523 865.074 304.05 C 864.874 304.57 864.597 305.023 864.244 305.41 C 863.897 305.803 863.484 306.11 863.004 306.33 C 862.524 306.557 862.004 306.67 861.444 306.67 Z M 860.854 304.85 C 861.194 304.85 861.511 304.783 861.804 304.65 C 862.091 304.517 862.334 304.337 862.534 304.11 C 862.741 303.883 862.897 303.623 863.004 303.33 C 863.117 303.03 863.174 302.71 863.174 302.37 C 863.174 302.023 863.121 301.697 863.014 301.39 C 862.907 301.083 862.757 300.81 862.564 300.57 C 862.364 300.337 862.131 300.15 861.864 300.01 C 861.597 299.877 861.304 299.81 860.984 299.81 C 860.504 299.81 860.074 299.967 859.694 300.28 C 859.314 300.593 859.024 300.98 858.824 301.44 L 858.824 303.44 C 858.897 303.653 859.007 303.843 859.154 304.01 C 859.294 304.183 859.457 304.33 859.644 304.45 C 859.824 304.577 860.021 304.673 860.234 304.74 C 860.447 304.813 860.654 304.85 860.854 304.85 ZM 866.808 304.57 L 866.808 294.83 L 868.948 294.83 L 868.948 303.82 C 868.948 304.133 869.025 304.373 869.178 304.54 C 869.325 304.713 869.538 304.8 869.818 304.8 C 869.945 304.8 870.085 304.777 870.238 304.73 C 870.391 304.69 870.538 304.637 870.678 304.57 L 870.968 306.21 C 870.681 306.343 870.345 306.45 869.958 306.53 C 869.578 306.603 869.231 306.64 868.918 306.64 C 868.245 306.64 867.725 306.46 867.358 306.1 C 866.991 305.747 866.808 305.237 866.808 304.57 ZM 875.78 306.67 C 875.113 306.67 874.507 306.557 873.96 306.33 C 873.413 306.097 872.95 305.783 872.57 305.39 C 872.183 304.997 871.887 304.537 871.68 304.01 C 871.473 303.49 871.37 302.943 871.37 302.37 C 871.37 301.77 871.47 301.207 871.67 300.68 C 871.877 300.153 872.17 299.69 872.55 299.29 C 872.937 298.89 873.403 298.57 873.95 298.33 C 874.503 298.097 875.12 297.98 875.8 297.98 C 876.48 297.98 877.09 298.097 877.63 298.33 C 878.17 298.57 878.63 298.887 879.01 299.28 C 879.39 299.673 879.677 300.13 879.87 300.65 C 880.07 301.177 880.17 301.723 880.17 302.29 C 880.17 302.423 880.167 302.557 880.16 302.69 C 880.153 302.817 880.14 302.923 880.12 303.01 L 873.64 303.01 C 873.673 303.337 873.753 303.63 873.88 303.89 C 874.007 304.143 874.173 304.36 874.38 304.54 C 874.58 304.72 874.807 304.86 875.06 304.96 C 875.32 305.053 875.587 305.1 875.86 305.1 C 876.287 305.1 876.69 304.997 877.07 304.79 C 877.45 304.583 877.71 304.31 877.85 303.97 L 879.69 304.48 C 879.377 305.12 878.883 305.643 878.21 306.05 C 877.53 306.463 876.72 306.67 875.78 306.67 Z M 873.61 301.61 L 877.96 301.61 C 877.907 300.983 877.673 300.48 877.26 300.1 C 876.853 299.72 876.357 299.53 875.77 299.53 C 875.483 299.53 875.213 299.583 874.96 299.69 C 874.707 299.79 874.487 299.93 874.3 300.11 C 874.107 300.29 873.947 300.51 873.82 300.77 C 873.7 301.023 873.63 301.303 873.61 301.61 Z" transform="matrix(1, 0, 0, 1, 0, 0)" style="fill: rgb(91, 91, 91); white-space: pre;"></path></svg> 